<svg width="50" height="50" viewBox="0 0 50 50" fill="none" xmlns="http://www.w3.org/2000/svg">
<g clip-path="url(#clip0_32_1697)">
<path d="M25 50C38.8071 50 50 38.8071 50 25C50 11.1929 38.8071 0 25 0C11.1929 0 0 11.1929 0 25C0 38.8071 11.1929 50 25 50Z" fill="#F9B231"/>
<path d="M37.7268 36.3637C37.4473 35.7578 36.955 35.2755 36.3436 35.0082L29.545 33.1818V30.9087L28.0709 32.3818C27.5596 32.8932 26.8659 33.1805 26.1427 33.1805H24.9996H23.8559C23.1327 33.1805 22.4396 32.8932 21.9277 32.3818L20.4541 30.9087V33.1818L13.6555 35.0082C13.0441 35.2755 12.5518 35.7578 12.2723 36.3637L8 45L16.5 50L21 51.5L26.1427 52L37.5 51L43.5 46L37.7268 36.3637Z" fill="white"/>
<path d="M32.0964 23.0267C31.9053 23.0267 31.7617 23.0699 31.6429 23.1296C31.6398 22.805 31.6583 22.4885 31.6429 22.1805H19.0285C19.0081 22.5888 19.0005 23.0123 19 23.4499V28.6725C19 29.1214 19.1906 29.5522 19.5293 29.8695L22.2709 32.437C22.779 32.9131 23.4681 33.1805 24.1866 33.1805H25.3224H26.4586C27.1771 33.1805 27.8658 32.9131 28.3743 32.437L31.1159 29.8695C31.4546 29.5522 31.6452 29.1214 31.6452 28.6725V27.1789C32.6505 26.8095 33 25.2071 33 23.9673C32.9995 23.4968 32.548 23.0267 32.0964 23.0267Z" fill="#BF8662"/>
<path d="M24.9999 42.0909C25.502 42.0909 25.909 41.6839 25.909 41.1818C25.909 40.6797 25.502 40.2727 24.9999 40.2727C24.4978 40.2727 24.0908 40.6797 24.0908 41.1818C24.0908 41.6839 24.4978 42.0909 24.9999 42.0909Z" fill="#F3B607"/>
<path d="M24.9999 38.9091C25.502 38.9091 25.909 38.5021 25.909 38C25.909 37.4979 25.502 37.0909 24.9999 37.0909C24.4978 37.0909 24.0908 37.4979 24.0908 38C24.0908 38.5021 24.4978 38.9091 24.9999 38.9091Z" fill="#F3B607"/>
<path d="M18.4414 22.1805C18.4254 22.4885 18.4169 22.805 18.4136 23.1296C18.2899 23.0699 18.1402 23.0268 17.9412 23.0268C17.4706 23.0268 17 23.4969 17 23.967C17 25.2072 17.3642 26.8092 18.4118 27.1786V28.6723C18.4118 29.1213 18.6104 29.552 18.9633 29.8694L21.8202 32.437C22.3496 32.9131 23.0678 33.1805 23.8165 33.1805H25V22.1805H18.4414Z" fill="#CC9978"/>
<path d="M23.1816 29.1818H26.818C26.818 29.1818 26.818 30.5455 24.9998 30.5455C23.1816 30.5455 23.1816 29.1818 23.1816 29.1818Z" fill="#9C6144"/>
<path d="M23.6328 25.1805C23.6328 24.6787 23.2256 24.2714 22.7237 24.2714C22.7228 24.2714 22.7219 24.2714 22.721 24.2714C22.7215 24.2809 22.7237 24.29 22.7237 24.2996C22.7237 24.8009 22.3183 25.2068 21.8174 25.2087C21.8324 25.6973 22.231 26.0896 22.7237 26.0896C23.2256 26.0896 23.6328 25.6828 23.6328 25.1805Z" fill="#3E3E3F"/>
<path d="M28.1758 25.1805C28.1758 24.6787 27.7685 24.2714 27.2667 24.2714C27.2658 24.2714 27.2649 24.2714 27.264 24.2714C27.2644 24.2809 27.2667 24.29 27.2667 24.2996C27.2667 24.8009 26.8613 25.2068 26.3604 25.2087C26.3754 25.6973 26.774 26.0896 27.2667 26.0896C27.769 26.0896 28.1758 25.6828 28.1758 25.1805Z" fill="#3E3E3F"/>
<path d="M32.727 15.3182C32.727 13.6864 31.4043 12.3637 29.7725 12.3637C29.0897 12.3637 28.4625 12.5977 27.962 12.9868C27.3029 12.0605 26.2229 11.4546 24.9997 11.4546C23.7766 11.4546 22.6966 12.0605 22.0375 12.9868C21.537 12.5977 20.9097 12.3637 20.227 12.3637C18.5952 12.3637 17.2725 13.6864 17.2725 15.3182C17.2725 16.3637 17.817 17.28 18.6361 17.8055V22.3637H31.3634V17.8055C32.1825 17.28 32.727 16.3637 32.727 15.3182Z" fill="#F1F2F2"/>
<path d="M28.6357 17.3636H27.7266V21.4546H28.6357V17.3636Z" fill="#E2E4E5"/>
<path d="M24.9997 22.3637V11.4546C23.7766 11.4546 22.6966 12.0605 22.0375 12.9868C21.537 12.5977 20.9097 12.3637 20.227 12.3637C18.5952 12.3637 17.2725 13.6864 17.2725 15.3182C17.2725 16.3637 17.817 17.28 18.6361 17.8055V22.3637H24.9997Z" fill="white"/>
<path d="M25.454 17.3636H24.5449V21.4546H25.454V17.3636Z" fill="#E2E4E5"/>
<path d="M22.2724 17.3636H21.3633V21.4546H22.2724V17.3636Z" fill="#E2E4E5"/>
<path d="M30 22.3636V25.0909H30.4545L31.3636 23.2727V22.3636H30Z" fill="#3E3E3F"/>
<path d="M18.6357 22.3636V23.2727L19.5448 25.0909H19.9994V22.3636H18.6357Z" fill="#3E3E3F"/>
<path d="M24.9991 28.2727C24.09 26.9091 21.8173 27.8182 20.9082 29.1818C22.2718 29.1818 24.9991 29.1818 24.9991 29.1818V28.2727Z" fill="#3E3E3F"/>
<path d="M24.999 28.2727C25.9081 26.9091 28.1808 27.8182 29.0899 29.1818C27.7263 29.1818 24.999 29.1818 24.999 29.1818V28.2727Z" fill="#3E3E3F"/>
</g>
<rect x="0.25" y="0.25" width="49.5" height="49.5" rx="24.75" stroke="black" stroke-opacity="0.2" stroke-width="0.5"/>
<defs>
<clipPath id="clip0_32_1697">
<rect width="50" height="50" rx="25" fill="white"/>
</clipPath>
</defs>
</svg>
